<svg xmlns="http://www.w3.org/2000/svg" xmlns:xlink="http://www.w3.org/1999/xlink" width="160" zoomAndPan="magnify" viewBox="0 0 120 30.000001" height="40" preserveAspectRatio="xMidYMid meet" version="1.0"><defs><g/><clipPath id="4c0c767c75"><path d="M 1.933594 7 L 19 7 L 19 20 L 1.933594 20 Z M 1.933594 7 " clip-rule="nonzero"/></clipPath></defs><g clip-path="url(#4c0c767c75)"><g fill="#ffffff" fill-opacity="1"><g transform="translate(1.622478, 19.645166)"><g><path d="M 17.34375 -11.71875 L 13.703125 0 L 11.15625 0 L 8.796875 -8.65625 L 6.421875 0 L 3.875 0 L 0.21875 -11.71875 L 2.6875 -11.71875 L 5.125 -2.296875 L 7.625 -11.71875 L 10.15625 -11.71875 L 12.53125 -2.34375 L 14.953125 -11.71875 Z M 17.34375 -11.71875 "/></g></g></g></g><g fill="#ffffff" fill-opacity="1"><g transform="translate(19.183869, 19.645166)"><g><path d="M 12.34375 -6.15625 C 12.34375 -5.707031 12.316406 -5.304688 12.265625 -4.953125 L 3.296875 -4.953125 C 3.367188 -4.015625 3.71875 -3.257812 4.34375 -2.6875 C 4.96875 -2.125 5.734375 -1.84375 6.640625 -1.84375 C 7.941406 -1.84375 8.863281 -2.390625 9.40625 -3.484375 L 12.03125 -3.484375 C 11.664062 -2.410156 11.019531 -1.53125 10.09375 -0.84375 C 9.164062 -0.15625 8.015625 0.1875 6.640625 0.1875 C 5.515625 0.1875 4.507812 -0.0625 3.625 -0.5625 C 2.738281 -1.0625 2.039062 -1.769531 1.53125 -2.6875 C 1.03125 -3.601562 0.78125 -4.664062 0.78125 -5.875 C 0.78125 -7.082031 1.023438 -8.140625 1.515625 -9.046875 C 2.003906 -9.960938 2.691406 -10.671875 3.578125 -11.171875 C 4.472656 -11.671875 5.492188 -11.921875 6.640625 -11.921875 C 7.742188 -11.921875 8.726562 -11.675781 9.59375 -11.1875 C 10.457031 -10.707031 11.128906 -10.03125 11.609375 -9.15625 C 12.097656 -8.289062 12.34375 -7.289062 12.34375 -6.15625 Z M 9.8125 -6.921875 C 9.800781 -7.804688 9.484375 -8.519531 8.859375 -9.0625 C 8.234375 -9.601562 7.457031 -9.875 6.53125 -9.875 C 5.695312 -9.875 4.976562 -9.609375 4.375 -9.078125 C 3.78125 -8.546875 3.425781 -7.828125 3.3125 -6.921875 Z M 9.8125 -6.921875 "/></g></g></g><g fill="#ffffff" fill-opacity="1"><g transform="translate(32.317658, 19.645166)"><g><path d="M 4.015625 -9.984375 C 4.429688 -10.546875 4.992188 -11.007812 5.703125 -11.375 C 6.421875 -11.738281 7.222656 -11.921875 8.109375 -11.921875 C 9.140625 -11.921875 10.070312 -11.671875 10.90625 -11.171875 C 11.75 -10.671875 12.410156 -9.960938 12.890625 -9.046875 C 13.378906 -8.140625 13.625 -7.097656 13.625 -5.921875 C 13.625 -4.742188 13.378906 -3.6875 12.890625 -2.75 C 12.410156 -1.820312 11.75 -1.097656 10.90625 -0.578125 C 10.0625 -0.0664062 9.128906 0.1875 8.109375 0.1875 C 7.203125 0.1875 6.394531 0.0078125 5.6875 -0.34375 C 4.988281 -0.695312 4.429688 -1.148438 4.015625 -1.703125 L 4.015625 0 L 1.59375 0 L 1.59375 -15.75 L 4.015625 -15.75 Z M 11.15625 -5.921875 C 11.15625 -6.722656 10.988281 -7.414062 10.65625 -8 C 10.320312 -8.59375 9.878906 -9.039062 9.328125 -9.34375 C 8.785156 -9.65625 8.203125 -9.8125 7.578125 -9.8125 C 6.960938 -9.8125 6.378906 -9.65625 5.828125 -9.34375 C 5.285156 -9.03125 4.847656 -8.578125 4.515625 -7.984375 C 4.179688 -7.390625 4.015625 -6.6875 4.015625 -5.875 C 4.015625 -5.0625 4.179688 -4.351562 4.515625 -3.75 C 4.847656 -3.15625 5.285156 -2.703125 5.828125 -2.390625 C 6.378906 -2.078125 6.960938 -1.921875 7.578125 -1.921875 C 8.203125 -1.921875 8.785156 -2.078125 9.328125 -2.390625 C 9.878906 -2.710938 10.320312 -3.175781 10.65625 -3.78125 C 10.988281 -4.394531 11.15625 -5.109375 11.15625 -5.921875 Z M 11.15625 -5.921875 "/></g></g></g><g fill="#a4f839" fill-opacity="1"><g transform="translate(45.688003, 19.645166)"><g><path d="M 1.234375 -11.6875 C 1.316406 -13 1.820312 -14.023438 2.75 -14.765625 C 3.6875 -15.503906 4.878906 -15.875 6.328125 -15.875 C 7.316406 -15.875 8.171875 -15.695312 8.890625 -15.34375 C 9.617188 -14.988281 10.164062 -14.503906 10.53125 -13.890625 C 10.90625 -13.285156 11.09375 -12.597656 11.09375 -11.828125 C 11.09375 -10.953125 10.859375 -10.203125 10.390625 -9.578125 C 9.921875 -8.953125 9.359375 -8.535156 8.703125 -8.328125 L 8.703125 -8.234375 C 9.535156 -7.984375 10.1875 -7.519531 10.65625 -6.84375 C 11.125 -6.164062 11.359375 -5.300781 11.359375 -4.25 C 11.359375 -3.414062 11.164062 -2.671875 10.78125 -2.015625 C 10.40625 -1.367188 9.835938 -0.859375 9.078125 -0.484375 C 8.328125 -0.109375 7.429688 0.078125 6.390625 0.078125 C 4.859375 0.078125 3.597656 -0.3125 2.609375 -1.09375 C 1.617188 -1.882812 1.085938 -3.015625 1.015625 -4.484375 L 3.359375 -4.484375 C 3.421875 -3.734375 3.710938 -3.117188 4.234375 -2.640625 C 4.753906 -2.171875 5.460938 -1.9375 6.359375 -1.9375 C 7.222656 -1.9375 7.890625 -2.171875 8.359375 -2.640625 C 8.828125 -3.117188 9.0625 -3.734375 9.0625 -4.484375 C 9.0625 -5.484375 8.742188 -6.191406 8.109375 -6.609375 C 7.484375 -7.023438 6.519531 -7.234375 5.21875 -7.234375 L 4.65625 -7.234375 L 4.65625 -9.234375 L 5.234375 -9.234375 C 6.378906 -9.242188 7.253906 -9.429688 7.859375 -9.796875 C 8.460938 -10.171875 8.765625 -10.757812 8.765625 -11.5625 C 8.765625 -12.238281 8.546875 -12.78125 8.109375 -13.1875 C 7.671875 -13.59375 7.046875 -13.796875 6.234375 -13.796875 C 5.441406 -13.796875 4.820312 -13.59375 4.375 -13.1875 C 3.9375 -12.78125 3.675781 -12.28125 3.59375 -11.6875 Z M 1.234375 -11.6875 "/></g></g></g><g fill="#ffffff" fill-opacity="1"><g transform="translate(57.167088, 19.645166)"><g><path d="M 5.859375 0.1875 C 4.929688 0.1875 4.101562 0.0195312 3.375 -0.3125 C 2.644531 -0.644531 2.066406 -1.097656 1.640625 -1.671875 C 1.210938 -2.242188 0.984375 -2.882812 0.953125 -3.59375 L 3.46875 -3.59375 C 3.507812 -3.101562 3.742188 -2.6875 4.171875 -2.34375 C 4.609375 -2.007812 5.15625 -1.84375 5.8125 -1.84375 C 6.488281 -1.84375 7.015625 -1.972656 7.390625 -2.234375 C 7.765625 -2.503906 7.953125 -2.84375 7.953125 -3.25 C 7.953125 -3.695312 7.742188 -4.023438 7.328125 -4.234375 C 6.910156 -4.441406 6.25 -4.675781 5.34375 -4.9375 C 4.457031 -5.175781 3.738281 -5.410156 3.1875 -5.640625 C 2.632812 -5.867188 2.15625 -6.21875 1.75 -6.6875 C 1.351562 -7.15625 1.15625 -7.769531 1.15625 -8.53125 C 1.15625 -9.15625 1.335938 -9.726562 1.703125 -10.25 C 2.066406 -10.769531 2.59375 -11.175781 3.28125 -11.46875 C 3.96875 -11.769531 4.757812 -11.921875 5.65625 -11.921875 C 6.988281 -11.921875 8.0625 -11.582031 8.875 -10.90625 C 9.695312 -10.226562 10.132812 -9.3125 10.1875 -8.15625 L 7.765625 -8.15625 C 7.722656 -8.675781 7.507812 -9.09375 7.125 -9.40625 C 6.738281 -9.71875 6.222656 -9.875 5.578125 -9.875 C 4.941406 -9.875 4.453125 -9.753906 4.109375 -9.515625 C 3.765625 -9.273438 3.59375 -8.957031 3.59375 -8.5625 C 3.59375 -8.25 3.707031 -7.984375 3.9375 -7.765625 C 4.164062 -7.554688 4.441406 -7.390625 4.765625 -7.265625 C 5.085938 -7.148438 5.570312 -7 6.21875 -6.8125 C 7.0625 -6.582031 7.753906 -6.347656 8.296875 -6.109375 C 8.847656 -5.878906 9.320312 -5.535156 9.71875 -5.078125 C 10.125 -4.628906 10.332031 -4.03125 10.34375 -3.28125 C 10.34375 -2.613281 10.15625 -2.015625 9.78125 -1.484375 C 9.414062 -0.960938 8.894531 -0.550781 8.21875 -0.25 C 7.550781 0.0390625 6.765625 0.1875 5.859375 0.1875 Z M 5.859375 0.1875 "/></g></g></g><g fill="#ffffff" fill-opacity="1"><g transform="translate(68.534094, 19.645166)"><g><path d="M 6.6875 0.1875 C 5.570312 0.1875 4.566406 -0.0625 3.671875 -0.5625 C 2.785156 -1.0625 2.085938 -1.769531 1.578125 -2.6875 C 1.066406 -3.601562 0.8125 -4.664062 0.8125 -5.875 C 0.8125 -7.0625 1.070312 -8.113281 1.59375 -9.03125 C 2.125 -9.957031 2.84375 -10.671875 3.75 -11.171875 C 4.65625 -11.671875 5.664062 -11.921875 6.78125 -11.921875 C 7.90625 -11.921875 8.921875 -11.671875 9.828125 -11.171875 C 10.734375 -10.671875 11.445312 -9.957031 11.96875 -9.03125 C 12.5 -8.113281 12.765625 -7.0625 12.765625 -5.875 C 12.765625 -4.6875 12.492188 -3.628906 11.953125 -2.703125 C 11.421875 -1.773438 10.6875 -1.0625 9.75 -0.5625 C 8.820312 -0.0625 7.800781 0.1875 6.6875 0.1875 Z M 6.6875 -1.921875 C 7.3125 -1.921875 7.894531 -2.066406 8.4375 -2.359375 C 8.976562 -2.660156 9.421875 -3.109375 9.765625 -3.703125 C 10.109375 -4.296875 10.28125 -5.019531 10.28125 -5.875 C 10.28125 -6.726562 10.113281 -7.445312 9.78125 -8.03125 C 9.457031 -8.625 9.023438 -9.066406 8.484375 -9.359375 C 7.953125 -9.660156 7.375 -9.8125 6.75 -9.8125 C 6.125 -9.8125 5.546875 -9.660156 5.015625 -9.359375 C 4.484375 -9.066406 4.0625 -8.625 3.75 -8.03125 C 3.4375 -7.445312 3.28125 -6.726562 3.28125 -5.875 C 3.28125 -4.613281 3.601562 -3.640625 4.25 -2.953125 C 4.894531 -2.265625 5.707031 -1.921875 6.6875 -1.921875 Z M 6.6875 -1.921875 "/></g></g></g><g fill="#ffffff" fill-opacity="1"><g transform="translate(82.114901, 19.645166)"><g><path d="M 7.515625 -11.921875 C 8.429688 -11.921875 9.253906 -11.726562 9.984375 -11.34375 C 10.722656 -10.957031 11.296875 -10.390625 11.703125 -9.640625 C 12.117188 -8.890625 12.328125 -7.984375 12.328125 -6.921875 L 12.328125 0 L 9.921875 0 L 9.921875 -6.546875 C 9.921875 -7.597656 9.65625 -8.40625 9.125 -8.96875 C 8.601562 -9.53125 7.890625 -9.8125 6.984375 -9.8125 C 6.078125 -9.8125 5.351562 -9.53125 4.8125 -8.96875 C 4.28125 -8.40625 4.015625 -7.597656 4.015625 -6.546875 L 4.015625 0 L 1.59375 0 L 1.59375 -11.71875 L 4.015625 -11.71875 L 4.015625 -10.390625 C 4.421875 -10.867188 4.929688 -11.242188 5.546875 -11.515625 C 6.160156 -11.785156 6.816406 -11.921875 7.515625 -11.921875 Z M 7.515625 -11.921875 "/></g></g></g><g fill="#ffffff" fill-opacity="1"><g transform="translate(95.929855, 19.645166)"><g><path d="M 0.78125 -5.921875 C 0.78125 -7.097656 1.023438 -8.140625 1.515625 -9.046875 C 2.003906 -9.953125 2.671875 -10.65625 3.515625 -11.15625 C 4.359375 -11.664062 5.296875 -11.921875 6.328125 -11.921875 C 7.242188 -11.921875 8.046875 -11.738281 8.734375 -11.375 C 9.421875 -11.007812 9.972656 -10.5625 10.390625 -10.03125 L 10.390625 -11.71875 L 12.828125 -11.71875 L 12.828125 0 L 10.390625 0 L 10.390625 -1.75 C 9.972656 -1.195312 9.410156 -0.734375 8.703125 -0.359375 C 7.992188 0.00390625 7.1875 0.1875 6.28125 0.1875 C 5.269531 0.1875 4.34375 -0.0664062 3.5 -0.578125 C 2.664062 -1.097656 2.003906 -1.820312 1.515625 -2.75 C 1.023438 -3.6875 0.78125 -4.742188 0.78125 -5.921875 Z M 10.390625 -5.875 C 10.390625 -6.6875 10.222656 -7.390625 9.890625 -7.984375 C 9.554688 -8.578125 9.117188 -9.03125 8.578125 -9.34375 C 8.035156 -9.65625 7.453125 -9.8125 6.828125 -9.8125 C 6.203125 -9.8125 5.617188 -9.65625 5.078125 -9.34375 C 4.546875 -9.039062 4.113281 -8.59375 3.78125 -8 C 3.445312 -7.414062 3.28125 -6.722656 3.28125 -5.921875 C 3.28125 -5.109375 3.445312 -4.394531 3.78125 -3.78125 C 4.113281 -3.175781 4.550781 -2.710938 5.09375 -2.390625 C 5.644531 -2.078125 6.222656 -1.921875 6.828125 -1.921875 C 7.453125 -1.921875 8.035156 -2.078125 8.578125 -2.390625 C 9.117188 -2.703125 9.554688 -3.15625 9.890625 -3.75 C 10.222656 -4.351562 10.390625 -5.0625 10.390625 -5.875 Z M 10.390625 -5.875 "/></g></g></g><g fill="#ffffff" fill-opacity="1"><g transform="translate(110.362124, 19.645166)"><g><path d="M 4.015625 -10.03125 C 4.367188 -10.625 4.84375 -11.085938 5.4375 -11.421875 C 6.03125 -11.753906 6.726562 -11.921875 7.53125 -11.921875 L 7.53125 -9.40625 L 6.921875 -9.40625 C 5.960938 -9.40625 5.238281 -9.160156 4.75 -8.671875 C 4.257812 -8.191406 4.015625 -7.359375 4.015625 -6.171875 L 4.015625 0 L 1.59375 0 L 1.59375 -11.71875 L 4.015625 -11.71875 Z M 4.015625 -10.03125 "/></g></g></g></svg>